<?xml version="1.0" encoding="utf-8"?>
<svg viewBox="0 0 24 24" xmlns="http://www.w3.org/2000/svg">
  <path d="M 22.165 8.269 C 21.576 8.563 20.828 8.322 20.56 7.73 C 17.244 1.114 8.044 0.526 3.925 6.67 C -0.14 12.815 3.925 21.085 11.306 21.556 C 11.52 21.57 11.734 21.576 11.948 21.576 C 15.586 21.591 18.956 19.518 20.56 16.241 C 20.935 15.41 22.112 15.341 22.647 16.116 C 22.86 16.476 22.914 16.934 22.701 17.32 C 18.581 25.584 7.08 26.303 1.945 18.616 C -3.136 10.927 1.999 0.597 11.2 0.021 C 16.013 -0.279 20.56 2.333 22.701 6.651 C 23.021 7.249 22.753 7.979 22.165 8.269 Z M 22.753 13.184 L 11.253 13.184 L 13.981 15.929 C 14.676 16.585 14.355 17.704 13.446 17.943 C 13.018 18.055 12.591 17.936 12.269 17.632 L 7.508 12.837 C 7.401 12.723 7.294 12.589 7.241 12.441 C 7.134 12.15 7.134 11.821 7.241 11.53 C 7.294 11.383 7.401 11.248 7.508 11.134 L 12.269 6.339 C 12.75 5.867 13.553 5.867 13.981 6.339 C 14.462 6.808 14.462 7.573 13.981 8.042 L 11.253 10.787 L 22.753 10.787 C 23.663 10.787 24.251 11.785 23.77 12.585 C 23.556 12.955 23.181 13.184 22.753 13.184 Z" style="" transform="matrix(-1, 0, 0, -1, 23.88459, 23.971114)"/>
</svg>