<?xml version="1.0" encoding="utf-8"?>
<svg viewBox="0 0 24 24" xmlns="http://www.w3.org/2000/svg">
  <path d="M 2.912 16.476 C 6.338 19.91 11.784 20.248 15.607 17.264 L 21.965 23.629 C 22.626 24.269 23.732 23.951 23.955 23.057 C 24.055 22.657 23.942 22.233 23.655 21.937 L 17.298 15.572 C 21.846 9.73 18.369 1.148 11.042 0.127 C 8.053 -0.29 5.044 0.723 2.912 2.861 C -0.844 6.62 -0.844 12.717 2.912 16.476 Z M 4.603 4.555 C 8.535 0.619 15.25 2.419 16.689 7.797 C 18.128 13.175 13.213 18.096 7.841 16.655 C 4.684 15.808 2.487 12.943 2.487 9.671 C 2.48 7.75 3.242 5.907 4.603 4.553 L 4.603 4.555 Z" style=""/>
</svg>